 <svg version="1.0" xmlns="http://www.w3.org/2000/svg"  width="900.000000pt" height="900.000000pt" viewBox="0 0 900.000000 900.000000"  preserveAspectRatio="xMidYMid meet">  <g transform="translate(0.000000,900.000000) scale(0.100000,-0.100000)" fill="#f05527" stroke="none"> <path d="M5101 6826 c-32 -9 -55 -25 -83 -57 l-38 -44 -2 -1167 c-2 -917 -6 -1170 -15 -1180 -7 -6 -13 -27 -13 -44 0 -18 -4 -35 -9 -38 -5 -4 -19 -25 -30 -49 -35 -69 -156 -187 -194 -187 -8 0 -20 -7 -27 -15 -7 -8 -25 -15 -39 -15 -15 0 -36 -7 -47 -15 -27 -20 -202 -21 -230 0 -10 8 -31 15 -45 15 -15 0 -32 7 -39 15 -7 8 -19 15 -27 15 -43 0 -203 161 -203 203 0 8 -7 20 -15 27 -8 7 -15 24 -15 39 0 14 -7 35 -15 45 -18 23 -22 226 -5 226 5 0 12 12 16 28 8 38 47 122 56 122 5 0 8 6 8 13 0 25 145 157 172 157 8 0 23 7 34 15 10 8 28 15 40 15 11 0 29 7 40 15 13 10 45 14 99 15 61 0 91 5 120 20 47 24 125 106 125 132 0 10 6 29 14 41 8 12 16 51 18 87 l3 64 -229 -2 c-186 -1 -233 -4 -252 -17 -13 -8 -34 -15 -47 -15 -14 0 -30 -7 -37 -15 -7 -8 -22 -15 -34 -15 -11 -1 -39 -12 -61 -25 -22 -14 -47 -28 -55 -32 -24 -10 -92 -64 -122 -95 -15 -15 -31 -28 -35 -28 -11 -1 -103 -124 -103 -137 0 -6 -7 -13 -15 -17 -8 -3 -15 -14 -15 -24 0 -11 -7 -25 -15 -32 -8 -7 -15 -23 -15 -35 0 -12 -7 -28 -15 -35 -8 -7 -15 -26 -15 -42 0 -16 -7 -40 -17 -54 -25 -39 -26 -388 0 -427 9 -14 17 -42 17 -60 0 -19 7 -40 15 -47 8 -7 15 -20 15 -30 0 -10 7 -23 15 -30 8 -7 15 -19 15 -27 0 -33 205 -273 233 -273 5 0 26 -13 47 -30 21 -17 42 -30 48 -30 5 0 15 -7 22 -15 7 -8 25 -15 40 -15 15 0 33 -7 40 -15 7 -8 26 -15 42 -15 16 0 40 -8 55 -17 38 -25 398 -25 434 0 13 10 35 17 50 17 15 0 32 7 39 15 7 8 23 15 36 15 12 0 26 5 29 11 4 5 17 15 28 20 60 27 186 120 187 137 0 6 7 12 15 12 8 0 15 5 15 10 0 6 13 23 28 38 16 15 31 34 35 42 4 8 16 29 26 45 30 47 61 110 61 126 0 8 7 23 15 33 8 11 15 34 15 51 0 17 7 41 15 53 14 19 16 155 15 1234 0 1062 -2 1214 -15 1224 -8 6 -15 15 -15 20 0 13 -39 37 -75 47 -55 15 -70 15 -114 3z"/> <path d="M3981 6711 l-51 -50 0 -93 c1 -66 5 -99 15 -112 8 -11 15 -34 15 -50 1 -17 7 -42 15 -56 8 -14 14 -39 15 -56 0 -16 7 -39 15 -50 8 -10 15 -35 15 -54 0 -19 7 -44 15 -54 8 -11 15 -36 15 -56 0 -20 7 -45 15 -56 8 -10 15 -35 15 -54 0 -19 7 -44 15 -54 8 -11 15 -36 15 -57 0 -20 7 -42 15 -49 9 -7 15 -29 15 -55 0 -26 6 -48 15 -55 8 -7 15 -19 15 -27 0 -19 40 -63 58 -63 7 0 15 -7 18 -15 5 -12 24 -15 84 -15 l78 0 51 49 51 49 0 83 c-1 58 -5 90 -15 103 -8 11 -15 34 -15 51 0 17 -7 40 -15 51 -8 10 -15 35 -15 55 0 19 -7 44 -15 55 -8 10 -15 35 -15 55 0 19 -7 44 -15 55 -8 10 -15 35 -15 55 0 20 -7 42 -15 49 -9 7 -15 30 -15 54 0 22 -7 50 -15 60 -8 11 -15 36 -15 56 0 20 -5 41 -12 48 -6 6 -14 30 -19 54 -13 75 -34 118 -79 158 -43 39 -46 40 -116 40 l-73 0 -50 -49z"/> <path d="M3077 6133 c-73 -8 -137 -93 -137 -184 0 -62 12 -80 120 -193 342 -355 456 -465 500 -481 70 -26 95 -29 109 -11 8 9 23 16 35 16 31 0 86 60 86 93 0 15 4 27 9 27 16 0 18 47 4 80 -7 18 -13 39 -13 47 0 18 2 16 -315 337 l-260 264 -50 4 c-27 3 -67 3 -88 1z"/> <path d="M6125 5302 c-41 -23 -477 -465 -525 -532 -21 -30 -24 -45 -23 -109 1 -56 5 -78 17 -86 9 -7 16 -16 16 -20 0 -33 123 -81 166 -64 11 4 31 8 46 8 21 1 59 33 170 145 239 242 318 324 318 331 0 4 11 16 25 27 51 40 83 160 50 188 -8 7 -15 20 -15 29 0 19 -49 71 -67 71 -6 0 -16 7 -23 15 -17 21 -116 18 -155 -3z"/> <path d="M2664 5095 c-10 -8 -26 -15 -35 -15 -8 0 -29 -15 -46 -32 -38 -40 -62 -132 -44 -166 6 -11 11 -28 11 -37 0 -21 40 -75 56 -75 6 0 17 -7 24 -15 7 -8 29 -15 49 -15 20 0 45 -7 55 -15 11 -8 35 -15 53 -15 19 0 50 -7 70 -15 19 -8 55 -15 78 -15 26 0 48 -6 55 -15 7 -9 30 -15 54 -15 22 -1 52 -7 66 -15 17 -10 57 -14 125 -14 96 0 101 1 131 28 17 15 33 35 37 44 3 9 11 17 17 17 19 0 12 136 -9 175 -22 41 -61 75 -88 75 -10 0 -27 7 -37 15 -11 8 -38 15 -61 15 -23 0 -50 7 -61 15 -10 8 -40 15 -65 15 -25 0 -54 7 -65 15 -10 8 -38 15 -60 15 -23 0 -55 7 -70 15 -16 8 -47 15 -69 15 -22 0 -49 7 -59 15 -11 8 -36 15 -56 15 -20 0 -45 -7 -56 -15z"/> <path d="M2437 3044 c-4 -4 -7 -123 -7 -264 0 -217 -2 -260 -15 -270 -8 -7 -15 -19 -15 -26 0 -8 -19 -27 -42 -44 -72 -53 -167 -35 -222 42 -36 50 -37 128 -1 181 14 20 32 37 39 37 8 0 19 7 26 15 7 9 29 15 50 15 32 0 44 6 69 38 49 58 40 67 -55 64 -53 -1 -92 -8 -115 -20 -43 -22 -109 -81 -109 -97 0 -7 -7 -18 -15 -25 -12 -10 -15 -37 -15 -120 0 -83 3 -110 15 -120 8 -7 15 -18 15 -24 1 -15 36 -56 49 -56 6 0 11 -4 11 -9 0 -5 19 -19 43 -30 62 -30 190 -30 248 1 50 26 109 85 109 108 0 10 7 23 15 30 13 11 15 56 15 291 l0 279 -29 0 c-16 0 -36 2 -43 5 -8 3 -17 2 -21 -1z"/> <path d="M2794 3041 c-2 -2 -4 -170 -4 -372 l0 -367 48 2 47 1 5 150 c6 172 17 209 77 250 27 18 51 25 85 25 41 0 53 -5 87 -37 l41 -38 2 -175 3 -174 55 -1 55 0 -1 150 c0 210 -8 253 -53 303 -53 58 -87 72 -180 72 -62 0 -82 -3 -89 -16 -6 -10 -20 -14 -43 -12 l-34 3 -2 113 c0 63 -4 116 -7 119 -6 7 -86 10 -92 4z"/> <path d="M3538 3017 c-16 -13 -28 -32 -28 -43 0 -24 39 -64 62 -64 18 0 58 45 58 65 0 17 -39 65 -53 65 -7 -1 -24 -11 -39 -23z"/> <path d="M3519 2823 c0 -4 0 -118 0 -253 1 -135 1 -251 1 -257 0 -15 95 -19 104 -5 2 4 6 122 7 262 l2 255 -57 3 c-31 2 -56 -1 -57 -5z"/> <path d="M4034 2815 c-10 -8 -26 -15 -34 -15 -20 -1 -47 -25 -91 -80 -29 -35 -38 -58 -45 -105 -11 -86 -5 -298 9 -307 7 -4 31 -8 55 -8 l42 0 0 163 0 163 29 31 c34 37 108 73 150 73 30 0 31 1 31 50 l0 50 -63 0 c-40 0 -70 -5 -83 -15z"/> <path d="M4478 2808 c-21 -11 -38 -24 -38 -29 0 -5 -6 -9 -13 -9 -18 0 -69 -59 -86 -101 -22 -52 -26 -172 -7 -188 9 -8 16 -22 16 -32 0 -11 9 -29 20 -41 48 -53 65 -68 77 -68 7 0 16 -6 20 -14 8 -13 61 -25 146 -32 l47 -3 0 33 c0 46 -46 86 -99 86 -30 0 -44 7 -72 38 -50 53 -72 91 -66 116 10 45 33 92 52 109 57 50 140 72 164 43 7 -8 22 -17 34 -20 13 -3 34 -20 47 -38 23 -31 25 -43 28 -190 l4 -158 32 -4 c17 -3 42 -4 56 -3 l24 2 1 134 c0 91 -3 142 -12 159 -7 13 -13 35 -13 48 0 31 -32 93 -47 94 -7 0 -13 7 -13 15 0 8 -6 15 -14 15 -7 0 -19 7 -26 15 -7 8 -20 15 -30 15 -10 0 -23 7 -30 15 -19 23 -154 18 -202 -7z"/> <path d="M5220 2815 c-7 -8 -20 -15 -30 -15 -23 0 -120 -96 -120 -119 0 -9 -7 -26 -15 -37 -9 -12 -14 -42 -14 -79 0 -37 5 -67 14 -79 8 -11 15 -27 15 -35 0 -20 77 -111 95 -111 7 0 18 -6 24 -14 13 -16 64 -27 136 -29 49 -2 50 -1 53 28 4 42 -33 75 -90 82 -50 6 -101 48 -124 102 -16 39 -18 87 -4 96 6 3 10 15 10 27 0 31 95 98 140 98 25 0 99 -38 123 -62 29 -30 36 -71 39 -220 l2 -138 30 -1 c17 -1 42 -2 56 -3 l25 -1 3 125 c2 92 -1 137 -13 172 -8 26 -15 55 -15 66 0 11 -7 25 -15 32 -8 7 -15 17 -15 22 0 17 -75 78 -96 78 -12 0 -27 7 -34 15 -9 11 -33 15 -90 15 -57 0 -81 -4 -90 -15z"/> <path d="M5954 2815 c-10 -8 -25 -15 -33 -15 -19 0 -101 -69 -101 -84 0 -8 -7 -19 -15 -26 -8 -7 -15 -22 -15 -33 0 -11 -5 -35 -12 -53 -13 -37 4 -136 29 -165 7 -8 13 -20 13 -25 0 -13 63 -74 76 -74 5 0 16 -6 22 -12 15 -15 111 -36 165 -37 41 -1 46 9 25 56 -20 43 -48 62 -94 63 -35 0 -48 6 -83 41 -40 41 -41 42 -41 113 0 69 2 74 33 102 43 39 89 64 121 64 47 0 136 -60 136 -91 0 -9 7 -22 15 -29 12 -10 15 -42 15 -171 0 -173 -8 -206 -63 -249 -34 -27 -180 -29 -226 -3 -30 18 -30 17 -60 -11 -17 -17 -31 -33 -31 -36 0 -4 21 -17 48 -29 26 -12 55 -26 64 -32 30 -16 194 -11 212 6 8 8 23 15 33 15 20 1 63 33 63 48 0 5 7 12 15 16 8 3 15 13 15 23 0 10 7 27 15 37 12 16 15 58 15 211 0 153 -3 195 -15 211 -8 10 -15 28 -15 40 0 26 -91 114 -118 114 -11 0 -25 7 -32 15 -17 21 -148 21 -176 0z"/> <path d="M6510 2643 c1 -150 4 -192 15 -207 8 -11 15 -27 15 -36 0 -24 70 -90 94 -90 12 0 32 -7 44 -16 25 -17 104 -15 140 5 11 6 28 11 37 11 22 0 85 60 85 80 0 10 7 23 15 30 12 10 15 47 15 211 l0 199 -50 -1 -50 -2 0 -169 c0 -168 0 -170 -27 -204 -34 -45 -82 -66 -124 -54 -39 12 -56 26 -85 72 -23 35 -24 47 -24 198 l0 160 -50 0 -50 0 0 -187z"/> </g> </svg> 